<svg id="Lager_1" data-name="Lager 1" xmlns="http://www.w3.org/2000/svg" viewBox="0 0 687.94 740.39"><defs><style>.cls-1,.cls-2{fill:#fff;stroke:#fff;stroke-miterlimit:10;}.cls-1{stroke-width:13px;}</style></defs><path class="cls-1" d="M716.83,288a584.7,584.7,0,0,1-153.94-20.62A605.39,605.39,0,0,1,405,198.7a605.64,605.64,0,0,1-153.94,67.55A584.83,584.83,0,0,1,93.19,288H71.5C72.23,562.11,208.38,800.57,409,923.83c200.77-123.37,337-362.17,337.45-636.67C736.6,287.66,726.74,288,716.83,288Zm-35.91,66.49C674.81,568,566.7,752.63,409.38,849.31,247.82,750,138.16,558,137.58,337.13h17.47a471,471,0,0,0,127.16-17.47,487.93,487.93,0,0,0,124-54.41,487.49,487.49,0,0,0,127.17,55.27,470.74,470.74,0,0,0,124,16.61c2.19,0,4.38,0,6.57-.05A16.83,16.83,0,0,1,680.92,354.44Z" transform="translate(-64.99 -191.08)"/><polygon class="cls-2" points="331.35 447.85 331.35 367.6 410.97 367.6 410.97 324.31 331.35 324.31 331.35 244.05 448.81 244.05 448.81 200.77 331.35 200.77 329.91 200.77 252.25 200.77 252.25 491.14 331.35 491.14 450.25 491.14 450.25 447.85 331.35 447.85"/></svg>