<svg id="Lager_1" data-name="Lager 1" xmlns="http://www.w3.org/2000/svg" viewBox="0 0 734.6 782.12"><defs><style>.cls-1{fill:#64ff00;}</style></defs><path class="cls-1" d="M782.25,299q-4.44.08-8.89.07a637.23,637.23,0,0,1-167.72-22.46,657.8,657.8,0,0,1-160.33-67.75,23,23,0,0,0-23.35,0,658.42,658.42,0,0,1-156,66.57,637.07,637.07,0,0,1-172,23.64h-.23a22.9,22.9,0,0,0-23,23.5c8.13,283.27,149,529,355.15,661.67a22.51,22.51,0,0,0,24.28,0C656.28,851.56,797.13,605.82,805.22,322.51A22.75,22.75,0,0,0,782.25,299ZM448.17,904.56a18.11,18.11,0,0,1-19.55,0C262.54,797.68,149.1,599.78,142.56,371.62a18.45,18.45,0,0,1,18.54-18.93h.2a513.16,513.16,0,0,0,138.54-19A530.62,530.62,0,0,0,425.53,280a18.51,18.51,0,0,1,18.8,0A530.48,530.48,0,0,0,573.48,334.6a513.3,513.3,0,0,0,135.08,18.09q3.59,0,7.16-.05a18.31,18.31,0,0,1,18.51,18.9C727.71,599.74,614.26,797.67,448.17,904.56Z" transform="translate(-70.63 -205.7)"/><path class="cls-1" d="M474,536.55c-23.67-23.67-28.25-66.1-33-157.25h-6c-4.8,91.15-9.37,133.58-33,157.25s-66.1,28.25-157.26,33v6c91.16,4.8,133.58,9.37,157.26,33s28.24,66.09,33,157.25h6c4.79-91.16,9.37-133.58,33-157.25s66.1-28.25,157.26-33v-6C540.07,564.8,497.65,560.22,474,536.55Z" transform="translate(-70.63 -205.7)"/></svg>